<?xml version="1.0" encoding="UTF-8"?>
<svg width="392px" height="333px" viewBox="0 0 392 333" version="1.1" xmlns="http://www.w3.org/2000/svg" xmlns:xlink="http://www.w3.org/1999/xlink">
    <!-- Generator: Sketch 57.1 (83088) - https://sketch.com -->
    <title>Group</title>
    <desc>Created with Sketch.</desc>
    <g id="Page-1" stroke="none" stroke-width="1" fill="none" fill-rule="evenodd">
        <g id="Artboard" transform="translate(-60.000000, -89.000000)">
            <g id="Group" transform="translate(60.000000, 89.000000)">
                <path d="M90.8192415,209.402955 C69.9033891,226.354375 57.606618,341.916816 187.161368,332.477525 C316.716119,323.038233 318.623361,188.976153 291.70254,173.593251 C226.133082,124.750089 138.174966,106.306455 27.8281917,118.262348 C-6.30514168,123.305281 -13.9995652,161.301792 33.1383022,156.573329 C167.17425,145.8047 243.060507,158.768681 260.797072,195.465273 C287.40192,250.51016 142.977375,218.107059 90.8192415,209.402955 Z" id="Path" fill="#F181A1"></path>
                <polygon id="Path-3" fill="#7AC8E7" points="133.226166 175.916302 133.226166 94.3797044 186.184993 128.699175"></polygon>
                <polygon id="Path-4" fill="#7AC8E7" points="203.301422 129.137379 267.613946 104.747651 247.732491 191.572467 193.189818 175.916302"></polygon>
                <path d="M122.822226,302.743356 C101.486903,270.892545 90.8192415,239.779078 90.8192415,209.402955 C97.3319844,168.68315 79.2525301,153.031969 90.8192415,101.924203 C102.179597,64.0452053 117.976958,30.0704708 138.211326,0 C132.408956,81.3554509 132.408956,135.4092 138.211326,162.161248 C193.916732,101.646256 227.285076,66.6995429 238.316357,57.3211084 L201.514049,168.68315 L241.936489,182.54447 L392.094036,26.6562277 L260.189818,196.925841 C275.852842,263.272659 232.906058,299.569754 131.349467,305.817128 C126.680541,304.831806 124.092103,304.073179 123.584152,303.54125 C123.076201,303.00932 122.822226,302.743356 122.822226,302.743356 Z" id="Path-2" fill="#265585"></path>
                <path d="M392.094036,26.6562277 L263.380226,96.7416457 C263.380226,96.7416457 256.232314,125.342587 241.936489,182.54447 C240.110789,189.417435 239.290057,194.044153 239.474295,196.424625 C210.50307,255.633111 171.873022,291.338652 123.584152,303.54125 C168.274099,317.25661 209.937073,304.74844 248.573075,266.016739 C266.818076,238.696963 270.952017,215.499591 260.974897,196.424625 L392.094036,26.6562277 Z" id="Path-5" fill="#F1F0BC"></path>
            </g>
        </g>
    </g>
</svg>